<svg width="100" height="100" viewBox="0 0 100 100" fill="none" xmlns="http://www.w3.org/2000/svg">
<mask id="mask0_227_2" style="mask-type:alpha" maskUnits="userSpaceOnUse" x="0" y="0" width="100" height="100">
<path d="M50.2165 9.875L50 9.5L49.7835 9.875L15.1425 69.875L14.926 70.25H15.359H84.641H85.074L84.8575 69.875L50.2165 9.875Z" fill="black" stroke="black" stroke-width="0.5"/>
<mask id="mask1_227_2" style="mask-type:alpha" maskUnits="userSpaceOnUse" x="15" y="10" width="70" height="60">
<path d="M50 10L84.641 70H15.359L50 10Z" fill="black"/>
</mask>
<g mask="url(#mask1_227_2)">
</g>
<mask id="mask2_227_2" style="mask-type:alpha" maskUnits="userSpaceOnUse" x="15" y="10" width="70" height="60">
<path d="M50 10L84.641 70H15.359L50 10Z" fill="black"/>
</mask>
<g mask="url(#mask2_227_2)">
</g>
</mask>
<g mask="url(#mask0_227_2)">
<g clip-path="url(#clip0_227_2)">
<path d="M94 35.25C94 25.7501 94 16.2499 94 6.75C94 -2.74991 94 -12.2501 91.6251 -19.3751C89.2499 -26.5001 84.5001 -31.2499 77.3751 -33.6251C70.2501 -36 60.7499 -36 51.25 -36C41.7501 -36 32.2499 -36 22.75 -36C13.2501 -36 3.7499 -36 -3.3751 -33.6251C-10.5001 -31.2499 -15.2499 -26.5001 -17.6251 -19.3751C-20 -12.2501 -20 -2.74991 -20 6.75C-20 16.2499 -20 25.7501 -20 35.25C-20 44.7499 -20 54.2501 -17.6251 61.3751C-15.2499 68.5001 -10.5001 73.2499 -3.3751 75.6251C3.7499 78 13.2501 78 22.75 78C32.2499 78 41.7501 78 51.25 78C60.7499 78 70.2501 78 77.3751 75.6251C84.5001 73.2499 89.2499 68.5001 91.6251 66.1249C94 63.75 94 63.75 94 58.9999C94 54.2501 94 44.7499 94 35.25Z" fill="black"/>
<path d="M94 35.25C94 25.7501 94 16.2499 94 6.75C94 -2.74991 94 -12.2501 91.6251 -19.3751C89.2499 -26.5001 84.5001 -31.2499 77.3751 -33.6251C70.2501 -36 60.7499 -36 51.25 -36C41.7501 -36 32.2499 -36 22.75 -36C13.2501 -36 3.7499 -36 -3.3751 -33.6251C-10.5001 -31.2499 -15.2499 -26.5001 -17.6251 -19.3751C-20 -12.2501 -20 -2.74991 -20 6.75C-20 16.2499 -20 25.7501 -20 35.25C-20 44.7499 -20 54.2501 -17.6251 61.3751C-15.2499 68.5001 -10.5001 73.2499 -3.3751 75.6251C3.7499 78 13.2501 78 22.75 78C32.2499 78 41.7501 78 51.25 78C60.7499 78 70.2501 78 77.3751 75.6251C84.5001 73.2499 89.2499 68.5001 91.6251 66.1249C94 63.75 94 63.75 94 58.9999C94 54.2501 94 44.7499 94 35.25Z" fill="#1A1A1A"/>
<path d="M94 35.25C94 25.7501 94 16.2499 94 6.75C94 -2.74991 94 -12.2501 91.6251 -19.3751C89.2499 -26.5001 84.5001 -31.2499 77.3751 -33.6251C70.2501 -36 60.7499 -36 51.25 -36C41.7501 -36 32.2499 -36 22.75 -36C13.2501 -36 3.7499 -36 -3.3751 -33.6251C-10.5001 -31.2499 -15.2499 -26.5001 -17.6251 -19.3751C-20 -12.2501 -20 -2.74991 -20 6.75C-20 16.2499 -20 25.7501 -20 35.25C-20 44.7499 -20 54.2501 -17.6251 61.3751C-15.2499 68.5001 -10.5001 73.2499 -3.3751 75.6251C3.7499 78 13.2501 78 22.75 78C32.2499 78 41.7501 78 51.25 78C60.7499 78 70.2501 78 77.3751 75.6251C84.5001 73.2499 89.2499 68.5001 91.6251 66.1249C94 63.75 94 63.75 94 58.9999C94 54.2501 94 44.7499 94 35.25Z" fill="#333333"/>
<path d="M94 35.25C94 25.7501 94 16.2499 94 6.75C94 -2.74991 94 -12.2501 91.6251 -19.3751C89.2499 -26.5001 84.5001 -31.2499 77.3751 -33.6251C70.2501 -36 60.7499 -36 51.25 -36C41.7501 -36 32.2499 -36 22.75 -36C13.2501 -36 3.7499 -36 -3.3751 -33.6251C-10.5001 -31.2499 -15.2499 -26.5001 -17.6251 -19.3751C-20 -12.2501 -20 -2.74991 -20 6.75C-20 16.2499 -20 25.7501 -20 35.25C-20 44.7499 -20 54.2501 -17.6251 61.3751C-15.2499 68.5001 -10.5001 73.2499 -3.3751 75.6251C3.7499 78 13.2501 78 22.75 78C32.2499 78 41.7501 78 51.25 78C60.7499 78 70.2501 78 77.3751 75.6251C84.5001 73.2499 89.2499 68.5001 91.6251 66.1249C94 63.75 94 63.75 94 58.9999C94 54.2501 94 44.7499 94 35.25Z" fill="#4D4D4D"/>
<path d="M77.9653 56.6931C84.5001 51.943 89.2499 43.5965 91.6251 34.6732C94 25.7501 94 16.2499 94 6.75002C94 -2.74988 94 -12.2501 91.6251 -19.3751C89.2499 -26.5001 84.5001 -31.2499 77.3751 -33.6251C70.2501 -36 60.7499 -36 51.5806 -33.6251C42.4113 -31.2499 33.5726 -26.5001 28.8225 -23.4406C24.0727 -20.3811 23.4112 -19.0123 18.3308 -17.6674C13.2501 -16.3224 3.7499 -15.0015 -3.3751 -10.9359C-10.5001 -6.87041 -15.2499 -0.060054 -17.6251 8.09494C-20 16.2499 -20 25.7501 -20 35.25C-20 44.7499 -20 54.2501 -17.6251 61.3751C-15.2499 68.5001 -10.5001 73.2499 -3.3751 75.6251C3.7499 78 13.2501 78 22.75 78C32.2499 78 41.7501 78 47.0904 75.6251C52.4305 73.2499 53.6112 68.5001 54.2015 66.1249C54.7917 63.75 54.7917 63.75 58.9516 63.1732C63.1111 62.5966 71.4306 61.443 77.9653 56.6931Z" fill="#666666"/>
<path d="M52.4034 55.422C60.7499 51.9459 70.2501 47.4198 77.3751 43.8827C84.5001 40.3458 89.2499 37.7979 91.6251 31.7739C94 25.7501 94 16.2499 94 6.75003C94 -2.74988 94 -12.2501 91.6251 -19.3751C89.2499 -26.5001 84.5001 -31.2499 77.3751 -33.6251C70.2501 -36 60.7499 -36 52.3912 -33.6251C44.0324 -31.2499 36.8145 -26.5001 32.0647 -21.7628C27.3146 -17.0255 25.0323 -12.3014 19.1411 -9.53972C13.2501 -6.77807 3.74993 -5.97893 -3.37507 -3.5912C-10.5001 -1.20318 -15.2499 2.77342 -17.6251 9.51168C-20 16.2499 -20 25.7501 -17.6251 34.403C-15.2499 43.0559 -10.5001 50.8621 -5.24781 55.6121C0.00445849 60.362 5.75918 62.056 10.5093 65.2779C15.2591 68.5001 19.0046 73.2499 22.031 73.2499C25.0571 73.2499 27.3642 68.5001 28.5176 66.1249C29.6712 63.75 29.6712 63.75 33.2677 62.5371C36.8641 61.3241 44.0572 58.8979 52.4034 55.422Z" fill="#808080"/>
<path d="M78.4077 11.3633C79.5198 6.47642 79.6349 6.20254 82.0674 1.45273C84.5001 -3.29737 89.2499 -12.5237 89.2499 -19.5119C89.2499 -26.5001 84.5001 -31.2499 77.3751 -33.6251C70.2501 -36 60.7499 -36 53.2017 -33.6251C45.6532 -31.2499 40.0567 -26.5001 35.3066 -20.085C30.5565 -13.6702 26.6534 -5.59048 19.9516 -1.41209C13.2501 2.76658 3.74993 3.0436 -3.37507 3.75382C-10.5001 4.46375 -15.2499 5.60689 -17.6251 10.9284C-20 16.2499 -20 25.7501 -17.6251 32.6343C-15.2499 39.5185 -10.5001 43.7872 -3.37507 46.6452C3.74993 49.5032 13.2501 50.9507 22.75 51.1051C32.2499 51.2596 41.7501 50.121 50.1377 47.2631C58.5255 44.4051 65.801 39.8274 69.4387 37.5389C73.0768 35.25 73.0768 35.25 74.1313 30.4999C75.186 25.7501 77.2953 16.2499 78.4077 11.3633Z" fill="#999999"/>
<path d="M60.1867 6.74991C62.4823 -2.75 68.7144 -12.2502 67.8811 -19.3752C67.0478 -26.5002 59.1487 -31.25 53.2116 -31.25C47.2742 -31.25 43.2984 -26.5002 42.0045 -19.3752C40.7103 -12.2502 42.098 -2.75 39.3358 6.44353C36.5738 15.6371 29.6617 24.5245 21.4557 28.0522C13.25 31.58 3.74981 29.7486 -3.37519 30.0549C-10.5002 30.3613 -15.25 32.8055 -15.25 34.3932C-15.25 35.9809 -10.5002 36.7122 -3.37519 36.8214C3.74981 36.9308 13.25 36.4181 22.7499 37.0933C32.2498 37.7682 41.75 39.6306 48.1537 39.5212C54.5576 39.412 57.8651 37.331 59.5189 36.2904C61.1728 35.2499 61.1728 35.2499 60.3522 30.4998C59.532 25.75 57.891 16.2498 60.1867 6.74991Z" fill="#B3B3B3"/>
</g>
</g>
<path d="M17.7402 85H16.1465L19.7031 76.6211H21.373L25.0059 85H23.3359L22.3809 82.7148H19.5977L20.1309 81.3672H21.8184L20.5 78.2207L17.7402 85ZM32.7109 84.6484C31.9883 84.9219 31.168 85.0586 30.25 85.0586C27.2422 85.0586 25.7383 83.6035 25.7383 80.6934C25.7383 77.9395 27.2422 76.5625 30.25 76.5625C31.168 76.5625 31.9883 76.6992 32.7109 76.9727V78.3789C31.9883 78.0664 31.207 77.9102 30.3672 77.9102C28.3555 77.9102 27.3496 78.8379 27.3496 80.6934C27.3496 82.7051 28.3555 83.7109 30.3672 83.7109C31.207 83.7109 31.9883 83.5547 32.7109 83.2422V84.6484ZM34.1758 85V76.6211H35.7871L38.6289 82.9785L41.4121 76.6211H42.9648V85H41.5293V79.1641L39.2559 85H37.9316L35.6113 79.1641V85H34.1758ZM50.459 76.6211V77.957H46.2637V80.0664H50.2598V81.4551H46.2461V83.6523H50.541V85H44.7227V76.6211H50.459ZM58.6562 84.6484C57.9336 84.9219 57.1133 85.0586 56.1953 85.0586C53.1875 85.0586 51.6836 83.6035 51.6836 80.6934C51.6836 77.9395 53.1875 76.5625 56.1953 76.5625C57.1133 76.5625 57.9336 76.6992 58.6562 76.9727V78.3789C57.9336 78.0664 57.1523 77.9102 56.3125 77.9102C54.3008 77.9102 53.2949 78.8379 53.2949 80.6934C53.2949 82.7051 54.3008 83.7109 56.3125 83.7109C57.1523 83.7109 57.9336 83.5547 58.6562 83.2422V84.6484ZM61.4395 80.7871C61.4395 82.7363 62.3047 83.7109 64.0352 83.7109C65.7227 83.7109 66.5664 82.7363 66.5664 80.7871C66.5664 78.8691 65.7227 77.9102 64.0352 77.9102C62.3047 77.9102 61.4395 78.8691 61.4395 80.7871ZM59.8281 80.8223C59.8281 77.9824 61.2305 76.5625 64.0352 76.5625C66.7969 76.5625 68.1777 77.9824 68.1777 80.8223C68.1777 83.6465 66.7969 85.0586 64.0352 85.0586C61.3555 85.0586 59.9531 83.6465 59.8281 80.8223ZM69.6484 84.9883V76.6211H73.457C75.168 76.6211 76.0234 77.3691 76.0234 78.8652C76.0234 79.877 75.3574 80.7148 74.0254 81.3789L76.6797 85H74.7227L72.1738 81.3496V80.6406C73.6582 80.3867 74.4004 79.8105 74.4004 78.9121C74.4004 78.2949 74.0527 77.9863 73.3574 77.9863H71.2305V84.9883H69.6484ZM77.418 85V76.6211H81.168C82.8789 76.6211 83.7344 77.4082 83.7344 78.9824C83.7344 80.6895 82.5645 81.7227 80.2246 82.082L80.002 80.6992C81.4082 80.4453 82.1113 79.8887 82.1113 79.0293C82.1113 78.334 81.7637 77.9863 81.0684 77.9863H78.9707V85H77.418Z" fill="black"/>
<defs>
<clipPath id="clip0_227_2">
<rect width="114" height="114" fill="white" transform="translate(-20 -36)"/>
</clipPath>
</defs>
</svg>
